<svg version="1.1" id="Layer_1" xmlns="http://www.w3.org/2000/svg" xmlns:xlink="http://www.w3.org/1999/xlink" x="0px" y="0px"
	 width="100%" viewBox="0 0 848 1090" enable-background="new 0 0 848 1090" xml:space="preserve">
M515.000000,1091.000000 
	C343.333344,1091.000000 172.166672,1091.000000 1.000000,1091.000000 
	C1.000000,727.666687 1.000000,364.333344 1.000000,1.000000 
	C283.666656,1.000000 566.333313,1.000000 849.000000,1.000000 
	C849.000000,364.333344 849.000000,727.666687 849.000000,1091.000000 
	C737.833313,1091.000000 626.666687,1091.000000 515.000000,1091.000000 
M488.146606,302.057190 
	C486.433838,302.101837 484.721100,302.146454 482.079865,302.044617 
	C458.385010,302.087402 434.690125,302.130188 410.066620,302.045959 
	C404.740631,302.038483 399.405914,301.853699 394.093201,302.115509 
	C392.119446,302.212769 390.197266,303.356354 389.119720,303.725433 
	C386.980164,303.067383 385.305389,302.199921 383.584076,302.094788 
	C379.769745,301.861847 375.932098,302.008057 372.103943,302.006104 
	C364.380768,302.002136 363.473663,303.123138 359.975952,310.123718 
	C354.220856,321.642517 347.849731,332.853546 341.059967,345.453125 
	C342.425354,346.336487 344.449097,348.785400 346.484497,348.795135 
	C391.589142,349.010895 436.695312,349.001587 481.799957,348.788391 
	C483.560455,348.780090 485.309418,346.329987 487.665466,344.673859 
	C492.261292,336.437500 496.964813,328.258667 501.410278,319.941895 
	C503.852264,315.373322 505.796234,310.541199 508.084930,305.887024 
	C509.610870,302.783875 508.051147,302.026978 505.386414,302.035736 
	C499.922577,302.053680 494.458923,302.130615 488.146606,302.057190 
M397.984009,480.627838 
	C399.356201,483.148346 400.652039,485.715515 402.146698,488.161163 
	C402.600037,488.902954 403.700378,489.852661 404.330994,489.739624 
	C405.247925,489.575317 406.282745,488.692566 406.777802,487.833954 
	C407.836792,485.997192 408.419189,483.885101 409.482697,482.051666 
	C415.263733,472.085480 421.051025,462.121002 427.007660,452.259491 
	C429.570618,448.016357 429.690613,443.970978 427.282654,439.715057 
	C421.923248,430.242676 416.597656,420.751221 411.091553,410.971405 
	C412.263458,410.597961 413.162292,410.048004 414.046936,410.069977 
	C424.150269,410.320831 434.270508,410.387329 444.344757,411.094147 
	C449.011414,411.421570 451.590393,409.017426 453.484772,405.759735 
	C457.995239,398.003204 462.085663,390.002991 466.377472,382.118439 
	C469.080414,377.152802 471.840607,372.218323 475.168457,366.196075 
	C471.537506,365.691772 469.198151,365.087738 466.857758,365.083588 
	C430.860779,365.019592 394.862823,365.150848 358.867615,364.889954 
	C354.050995,364.855072 351.575714,367.167908 349.354065,370.487030 
	C348.007996,372.498108 347.410706,375.031677 345.976898,376.958313 
	C342.931030,381.051086 343.665253,384.880341 346.014038,388.864655 
	C347.578735,391.518951 348.965332,394.277863 350.511841,396.943390 
	C358.817902,411.259766 367.265717,425.495331 375.437531,439.887695 
	C382.977875,453.167847 390.231354,466.610901 397.984009,480.627838 
M738.956177,642.494812 
	C738.958923,613.834534 738.962158,585.174255 738.962585,556.513977 
	C738.962646,555.348694 739.152222,554.119873 738.836792,553.042664 
	C738.657227,552.429382 737.637573,551.657715 736.986755,551.648804 
	C729.754211,551.550049 722.519775,551.586609 714.887695,551.586609 
	C714.887695,569.536987 714.887695,586.558655 714.887695,604.661255 
	C711.390503,600.296326 708.641724,596.733337 705.754944,593.286133 
	C695.262207,580.756470 684.601013,568.365234 674.265076,555.708130 
	C670.432861,551.015259 666.377197,548.300171 660.027649,550.649475 
	C660.027649,583.422974 660.116943,616.229797 659.924988,649.034973 
	C659.898254,653.605713 661.004150,655.108643 665.581604,654.107605 
	C667.378357,653.714661 669.473511,654.293701 671.355530,654.749268 
	C681.433777,657.188965 683.968689,655.289001 683.971802,645.108337 
	C683.976196,630.883850 683.972961,616.659302 683.972961,601.901611 
	C690.461914,609.290466 696.574280,616.049072 702.459229,623.000305 
	C710.682556,632.713867 718.793884,642.524048 726.833801,652.390137 
	C730.034058,656.317139 733.675964,658.279846 738.693787,656.497131 
	C738.795837,656.278198 738.922119,656.133179 738.922791,655.987671 
	C738.941406,651.822266 738.947449,647.656799 738.956177,642.494812 
M215.011581,640.471619 
	C214.682343,643.720459 214.246857,646.963013 214.053589,650.219910 
	C213.857529,653.524170 215.064835,655.371704 218.902908,655.076233 
	C223.041626,654.757568 227.223694,655.001404 231.386841,655.000854 
	C237.980927,655.000000 237.988785,655.000366 237.990814,648.564819 
	C237.995682,633.181885 237.992401,617.798889 237.992401,601.373535 
	C240.572906,604.406982 242.427979,606.598877 244.295120,608.780457 
	C250.466156,615.990662 256.663513,623.178406 262.809235,630.410156 
	C269.783722,638.617065 276.499359,647.061401 283.832031,654.932617 
	C285.414673,656.631531 289.187256,656.835022 291.870911,656.637634 
	C292.695862,656.576904 293.839355,652.896423 293.847351,650.869507 
	C293.972229,619.230042 293.938232,587.590027 293.921265,555.950073 
	C293.920593,554.689392 293.725525,553.428894 293.623779,552.201172 
	C285.297638,552.201172 277.339172,552.201172 269.699615,552.201172 
	C269.699615,569.751343 269.699615,587.114014 269.699615,605.569214 
	C264.780975,599.799316 260.350708,594.688171 256.016205,589.496948 
	C249.956924,582.240173 244.012634,574.887085 237.936249,567.644836 
	C233.508682,562.367737 228.850235,557.282593 224.482239,551.958008 
	C221.932373,548.849731 218.617874,549.455322 215.758560,550.335999 
	C214.727692,550.653503 214.145248,553.950317 214.167633,555.878113 
	C214.234390,561.631042 215.009018,567.382507 214.950104,573.128723 
	C214.824600,585.367798 214.117355,597.602661 214.087112,609.840332 
	C214.062637,619.742065 214.679764,629.645508 215.011581,640.471619 
M561.041565,643.560730 
	C573.375977,653.186157 586.910522,658.511475 602.803894,655.619202 
	C600.453735,648.754395 597.811340,642.326965 596.165649,635.653687 
	C595.407227,632.578308 594.190674,632.313904 591.615112,631.886108 
	C588.062500,631.296021 584.265747,630.451965 581.259888,628.601685 
	C570.185486,621.784668 565.249451,607.776428 569.043213,593.954407 
	C574.111938,575.486816 592.235718,568.836487 607.988525,576.545776 
	C621.932495,583.369934 624.658264,597.320923 622.302979,610.294189 
	C629.580017,613.289978 636.935120,616.317871 645.685425,619.920105 
	C646.160034,612.616699 646.906128,606.346741 646.903198,600.077148 
	C646.897400,587.782532 642.389099,576.895386 634.255554,567.930054 
	C622.463440,554.931946 607.731323,548.906677 589.884155,550.963928 
	C571.104431,553.128662 557.085754,562.480164 549.155212,579.336609 
	C539.104065,600.700562 542.610840,625.710022 561.041565,643.560730 
M382.284363,551.106995 
	C377.453979,551.095886 372.592743,550.769226 367.809265,551.237488 
	C366.030670,551.411499 363.547302,553.089600 362.902100,554.692383 
	C359.357574,563.497253 356.223755,572.470459 353.066742,581.427368 
	C350.572296,588.504456 348.247650,595.641479 345.847595,602.751953 
	C339.129272,586.904785 333.385681,571.243469 328.059021,555.441650 
	C327.006592,552.319580 325.710205,551.050415 322.580505,551.095154 
	C317.251831,551.171326 311.920685,551.066162 306.590546,551.055115 
	C300.792236,551.043091 299.614471,553.247192 301.956268,558.861877 
	C310.032562,578.225586 318.099396,597.594666 325.951080,617.050049 
	C330.980621,629.512573 335.506317,642.178955 340.576752,654.624023 
	C341.298920,656.396545 343.676453,657.825989 345.612061,658.563721 
	C346.166779,658.775208 348.308899,656.184387 348.963409,654.570435 
	C362.092987,622.191650 375.113373,589.768616 388.150024,557.352234 
	C390.095856,552.513672 389.081299,551.240479 382.284363,551.106995 
M471.202881,620.706543 
	C473.513916,628.506348 471.495117,633.028198 464.019501,633.775208 
	C458.860657,634.290771 453.339783,633.245056 448.257812,631.871643 
	C443.471039,630.578003 439.047119,627.941772 434.389709,625.863220 
	C433.563202,632.149597 432.765381,637.950195 432.051788,643.761169 
	C431.709076,646.551636 432.206726,648.720947 435.301025,650.095764 
	C447.156433,655.363159 459.181702,658.646606 472.208923,655.010132 
	C485.600311,651.271912 495.639709,640.268738 496.014160,625.571350 
	C496.435760,609.023804 486.847748,599.994263 472.707458,594.012024 
	C468.731323,592.329956 464.598419,590.943359 460.811127,588.911072 
	C457.027649,586.880859 454.946686,583.287964 456.082703,578.991821 
	C457.199188,574.769409 460.405823,572.433228 464.959290,573.031982 
	C471.455383,573.886169 477.915894,575.010864 485.257690,576.155029 
	C486.564087,569.917297 488.065247,562.749817 489.592865,555.455994 
	C484.317200,553.870361 479.962158,552.023315 475.432465,551.348328 
	C470.721863,550.646545 465.820862,550.751221 461.040680,551.068970 
	C439.644897,552.491150 428.749847,570.298279 433.811523,589.335266 
	C436.835571,600.708557 445.664093,606.131653 455.219849,611.030273 
	C460.590271,613.783264 465.753601,616.940369 471.202881,620.706543 
M147.325180,592.072998 
	C143.035583,592.072998 138.745987,592.072998 133.989243,592.072998 
	C133.989243,586.896240 133.827972,582.221375 134.125748,577.575928 
	C134.185074,576.650391 136.004517,575.086060 137.004150,575.092529 
	C144.276947,575.139038 151.549835,575.712708 158.817505,575.634827 
	C160.537643,575.616333 163.536880,573.952026 163.723846,572.710022 
	C164.556198,567.180664 164.613724,561.531372 164.886093,555.922180 
	C165.046906,552.610474 163.373947,551.082825 160.066711,551.084290 
	C145.409378,551.090820 130.751892,551.074219 116.094719,551.009216 
	C112.554482,550.993530 110.981995,552.578918 110.988014,556.136169 
	C111.041588,587.782715 111.049858,619.429321 111.045723,651.075928 
	C111.045296,654.368408 112.532349,655.989441 115.863167,655.958313 
	C120.279572,655.916992 124.705475,655.772156 129.110672,655.997192 
	C132.760849,656.183594 134.132736,654.921692 134.051880,651.150146 
	C133.841293,641.327515 134.222473,631.488464 133.865021,621.674316 
	C133.690170,616.873718 135.417831,615.610291 139.916214,615.851196 
	C146.162186,616.185669 152.439484,615.935242 158.364151,615.935242 
	C158.958893,612.229248 159.843307,609.303650 159.800186,606.391724 
	C159.732468,601.819519 159.887802,596.889893 158.157364,592.885681 
	C157.539490,591.455994 151.715027,592.276367 147.325180,592.072998 
M175.016144,568.501892 
	C175.016144,597.237671 175.016144,625.973389 175.016144,655.001770 
	C181.451889,655.001770 187.415192,654.895752 193.372498,655.039001 
	C197.361908,655.134949 199.111374,654.023682 199.080109,649.457458 
	C198.868271,618.499451 198.969910,587.539429 198.956070,556.580017 
	C198.955414,555.141296 198.819626,553.702637 198.748352,552.294800 
	C190.682709,552.294800 182.956589,552.294800 175.016159,552.294800 
	C175.016159,557.560425 175.016159,562.531921 175.016144,568.501892 
M396.019653,607.500000 
	C396.022003,621.808350 396.111786,636.117554 395.963043,650.424316 
	C395.927460,653.846191 396.892609,655.260742 400.477539,655.067810 
	C405.122681,654.817749 409.813324,654.722961 414.443542,655.084412 
	C418.884460,655.431030 420.068268,653.853821 420.042358,649.473694 
	C419.859619,618.528870 419.940460,587.582458 419.937256,556.636597 
	C419.937103,555.198364 419.937256,553.760071 419.937256,552.328918 
	C411.718262,552.328918 404.002899,552.328918 396.019073,552.328918 
	C396.019073,570.604370 396.019073,588.552185 396.019653,607.500000 
M527.227844,654.997131 
	C531.002625,655.546204 532.020752,653.844299 532.007141,650.178772 
	C531.888855,618.383423 531.945496,586.587402 531.950073,554.791626 
	C531.950195,554.005310 531.950134,553.218933 531.950134,552.250854 
	C523.821167,552.250854 516.098145,552.250854 508.026245,552.250854 
	C508.026245,585.573730 507.990204,618.663086 508.184937,651.751160 
	C508.191345,652.843689 510.475494,654.753357 511.809937,654.858276 
	C516.607605,655.235718 521.453430,655.001648 527.227844,654.997131 
M656.033142,636.713196 
	C657.339355,632.701538 654.902527,631.244385 651.707581,630.020325 
	C634.683472,623.497437 617.692688,616.887878 600.520081,610.242432 
	C596.876648,612.656677 595.334839,615.573853 597.563293,620.373962 
	C600.166321,625.980835 601.866943,632.001526 604.063354,637.803284 
	C607.995972,648.191589 611.893127,658.596741 616.098999,668.874634 
	C616.778870,670.535950 619.064148,672.714355 620.448364,672.606812 
	C622.062927,672.481384 624.080200,670.379517 624.893799,668.650940 
	C626.407532,665.434814 627.175903,661.867798 628.387451,658.025330 
	C633.400391,663.857117 638.349060,669.415771 643.060913,675.168335 
	C645.992798,678.747742 648.193237,679.072815 651.626465,675.800903 
	C652.830261,674.653625 653.861328,673.293091 655.175110,672.299622 
	C658.423035,669.843506 658.355408,667.362793 655.843567,664.373230 
	C650.572571,658.099854 645.439880,651.710266 639.796448,644.813660 
	C642.513062,643.776855 644.982300,642.994324 647.308411,641.906128 
	C650.218201,640.544922 653.010498,638.932556 656.033142,636.713196 
z"/>
<path fill="#C3364D" opacity="1.000000" stroke="none" 
	d="
M397.797607,480.305023 
	C390.231354,466.610901 382.977875,453.167847 375.437531,439.887695 
	C367.265717,425.495331 358.817902,411.259766 350.511841,396.943390 
	C348.965332,394.277863 347.578735,391.518951 346.014038,388.864655 
	C343.665253,384.880341 342.931030,381.051086 345.976898,376.958313 
	C347.410706,375.031677 348.007996,372.498108 349.354065,370.487030 
	C351.575714,367.167908 354.050995,364.855072 358.867615,364.889954 
	C394.862823,365.150848 430.860779,365.019592 466.857758,365.083588 
	C469.198151,365.087738 471.537506,365.691772 475.168457,366.196075 
	C471.840607,372.218323 469.080414,377.152802 466.377472,382.118439 
	C462.085663,390.002991 457.995239,398.003204 453.484772,405.759735 
	C451.590393,409.017426 449.011414,411.421570 444.344757,411.094147 
	C434.270508,410.387329 424.150269,410.320831 414.046936,410.069977 
	C413.162292,410.048004 412.263458,410.597961 411.091553,410.971405 
	C416.597656,420.751221 421.923248,430.242676 427.282654,439.715057 
	C429.690613,443.970978 429.570618,448.016357 427.007660,452.259491 
	C421.051025,462.121002 415.263733,472.085480 409.482697,482.051666 
	C408.419189,483.885101 407.836792,485.997192 406.777802,487.833954 
	C406.282745,488.692566 405.247925,489.575317 404.330994,489.739624 
	C403.700378,489.852661 402.600037,488.902954 402.146698,488.161163 
	C400.652039,485.715515 399.356201,483.148346 397.797607,480.305023 
z"/>
<path fill="#C4374D" opacity="1.000000" stroke="none" 
	d="
M483.008362,302.191101 
	C484.721100,302.146454 486.433838,302.101837 488.682831,302.499390 
	C494.857483,303.479523 500.495880,304.017426 507.237610,304.660583 
	C503.497742,311.513977 499.942627,318.028809 496.368347,324.578796 
	C495.541779,324.041077 494.764404,323.535370 493.746277,322.873016 
	C493.696259,331.459869 490.224182,337.916168 484.001831,343.583435 
	C485.138062,344.115662 486.100922,344.566681 487.063782,345.017700 
	C485.309418,346.329987 483.560455,348.780090 481.799957,348.788391 
	C436.695312,349.001587 391.589142,349.010895 346.484497,348.795135 
	C344.449097,348.785400 342.425354,346.336487 341.059967,345.453125 
	C347.849731,332.853546 354.220856,321.642517 359.975952,310.123718 
	C363.473663,303.123138 364.380768,302.002136 372.103943,302.006104 
	C375.932098,302.008057 379.769745,301.861847 383.584076,302.094788 
	C385.305389,302.199921 386.980164,303.067383 389.119720,303.725433 
	C390.197266,303.356354 392.119446,302.212769 394.093201,302.115509 
	C399.405914,301.853699 404.740631,302.038483 410.638733,302.484924 
	C415.523987,303.614075 419.830414,304.846466 424.151459,304.900024 
	C442.286224,305.125000 460.426025,305.062805 478.561676,304.876862 
	C480.052917,304.861633 481.526550,303.126892 483.008362,302.191101 
z"/>
<path fill="#ffffff" opacity="1.000000" stroke="none" 
	d="
M738.955811,642.993042 
	C738.947449,647.656799 738.941406,651.822266 738.922791,655.987671 
	C738.922119,656.133179 738.795837,656.278198 738.693787,656.497131 
	C733.675964,658.279846 730.034058,656.317139 726.833801,652.390137 
	C718.793884,642.524048 710.682556,632.713867 702.459229,623.000305 
	C696.574280,616.049072 690.461914,609.290466 683.972961,601.901611 
	C683.972961,616.659302 683.976196,630.883850 683.971802,645.108337 
	C683.968689,655.289001 681.433777,657.188965 671.355530,654.749268 
	C669.473511,654.293701 667.378357,653.714661 665.581604,654.107605 
	C661.004150,655.108643 659.898254,653.605713 659.924988,649.034973 
	C660.116943,616.229797 660.027649,583.422974 660.027649,550.649475 
	C666.377197,548.300171 670.432861,551.015259 674.265076,555.708130 
	C684.601013,568.365234 695.262207,580.756470 705.754944,593.286133 
	C708.641724,596.733337 711.390503,600.296326 714.887695,604.661255 
	C714.887695,586.558655 714.887695,569.536987 714.887695,551.586609 
	C722.519775,551.586609 729.754211,551.550049 736.986755,551.648804 
	C737.637573,551.657715 738.657227,552.429382 738.836792,553.042664 
	C739.152222,554.119873 738.962646,555.348694 738.962585,556.513977 
	C738.962158,585.174255 738.958923,613.834534 738.955811,642.993042 
z"/>
<path fill="#ffffff" opacity="1.000000" stroke="none" 
	d="
M215.011932,640.009888 
	C214.679764,629.645508 214.062637,619.742065 214.087112,609.840332 
	C214.117355,597.602661 214.824600,585.367798 214.950104,573.128723 
	C215.009018,567.382507 214.234390,561.631042 214.167633,555.878113 
	C214.145248,553.950317 214.727692,550.653503 215.758560,550.335999 
	C218.617874,549.455322 221.932373,548.849731 224.482239,551.958008 
	C228.850235,557.282593 233.508682,562.367737 237.936249,567.644836 
	C244.012634,574.887085 249.956924,582.240173 256.016205,589.496948 
	C260.350708,594.688171 264.780975,599.799316 269.699615,605.569214 
	C269.699615,587.114014 269.699615,569.751343 269.699615,552.201172 
	C277.339172,552.201172 285.297638,552.201172 293.623779,552.201172 
	C293.725525,553.428894 293.920593,554.689392 293.921265,555.950073 
	C293.938232,587.590027 293.972229,619.230042 293.847351,650.869507 
	C293.839355,652.896423 292.695862,656.576904 291.870911,656.637634 
	C289.187256,656.835022 285.414673,656.631531 283.832031,654.932617 
	C276.499359,647.061401 269.783722,638.617065 262.809235,630.410156 
	C256.663513,623.178406 250.466156,615.990662 244.295120,608.780457 
	C242.427979,606.598877 240.572906,604.406982 237.992401,601.373535 
	C237.992401,617.798889 237.995682,633.181885 237.990814,648.564819 
	C237.988785,655.000366 237.980927,655.000000 231.386841,655.000854 
	C227.223694,655.001404 223.041626,654.757568 218.902908,655.076233 
	C215.064835,655.371704 213.857529,653.524170 214.053589,650.219910 
	C214.246857,646.963013 214.682343,643.720459 215.011932,640.009888 
z"/>
<path fill="#ffffff" opacity="1.000000" stroke="none" 
	d="
M560.794067,643.292969 
	C542.610840,625.710022 539.104065,600.700562 549.155212,579.336609 
	C557.085754,562.480164 571.104431,553.128662 589.884155,550.963928 
	C607.731323,548.906677 622.463440,554.931946 634.255554,567.930054 
	C642.389099,576.895386 646.897400,587.782532 646.903198,600.077148 
	C646.906128,606.346741 646.160034,612.616699 645.685425,619.920105 
	C636.935120,616.317871 629.580017,613.289978 622.302979,610.294189 
	C624.658264,597.320923 621.932495,583.369934 607.988525,576.545776 
	C592.235718,568.836487 574.111938,575.486816 569.043213,593.954407 
	C565.249451,607.776428 570.185486,621.784668 581.259888,628.601685 
	C584.265747,630.451965 588.062500,631.296021 591.615112,631.886108 
	C594.190674,632.313904 595.407227,632.578308 596.165649,635.653687 
	C597.811340,642.326965 600.453735,648.754395 602.803894,655.619202 
	C586.910522,658.511475 573.375977,653.186157 560.794067,643.292969 
z"/>
<path fill="#BE374A" opacity="1.000000" stroke="none" 
	d="
M382.752716,551.107544 
	C389.081299,551.240479 390.095856,552.513672 388.150024,557.352234 
	C375.113373,589.768616 362.092987,622.191650 348.963409,654.570435 
	C348.308899,656.184387 346.166779,658.775208 345.612061,658.563721 
	C343.676453,657.825989 341.298920,656.396545 340.576752,654.624023 
	C335.506317,642.178955 330.980621,629.512573 325.951080,617.050049 
	C318.099396,597.594666 310.032562,578.225586 301.956268,558.861877 
	C299.614471,553.247192 300.792236,551.043091 306.590546,551.055115 
	C311.920685,551.066162 317.251831,551.171326 322.580505,551.095154 
	C325.710205,551.050415 327.006592,552.319580 328.059021,555.441650 
	C333.385681,571.243469 339.129272,586.904785 345.847595,602.751953 
	C348.247650,595.641479 350.572296,588.504456 353.066742,581.427368 
	C356.223755,572.470459 359.357574,563.497253 362.902100,554.692383 
	C363.547302,553.089600 366.030670,551.411499 367.809265,551.237488 
	C372.592743,550.769226 377.453979,551.095886 382.752716,551.107544 
z"/>
<path fill="#ffffff" opacity="1.000000" stroke="none" 
	d="
M471.106537,620.311035 
	C465.753601,616.940369 460.590271,613.783264 455.219849,611.030273 
	C445.664093,606.131653 436.835571,600.708557 433.811523,589.335266 
	C428.749847,570.298279 439.644897,552.491150 461.040680,551.068970 
	C465.820862,550.751221 470.721863,550.646545 475.432465,551.348328 
	C479.962158,552.023315 484.317200,553.870361 489.592865,555.455994 
	C488.065247,562.749817 486.564087,569.917297 485.257690,576.155029 
	C477.915894,575.010864 471.455383,573.886169 464.959290,573.031982 
	C460.405823,572.433228 457.199188,574.769409 456.082703,578.991821 
	C454.946686,583.287964 457.027649,586.880859 460.811127,588.911072 
	C464.598419,590.943359 468.731323,592.329956 472.707458,594.012024 
	C486.847748,599.994263 496.435760,609.023804 496.014160,625.571350 
	C495.639709,640.268738 485.600311,651.271912 472.208923,655.010132 
	C459.181702,658.646606 447.156433,655.363159 435.301025,650.095764 
	C432.206726,648.720947 431.709076,646.551636 432.051788,643.761169 
	C432.765381,637.950195 433.563202,632.149597 434.389709,625.863220 
	C439.047119,627.941772 443.471039,630.578003 448.257812,631.871643 
	C453.339783,633.245056 458.860657,634.290771 464.019501,633.775208 
	C471.495117,633.028198 473.513916,628.506348 471.106537,620.311035 
z"/>
<path fill="#BE364B" opacity="1.000000" stroke="none" 
	d="
M147.796143,592.071411 
	C151.715027,592.276367 157.539490,591.455994 158.157364,592.885681 
	C159.887802,596.889893 159.732468,601.819519 159.800186,606.391724 
	C159.843307,609.303650 158.958893,612.229248 158.364151,615.935242 
	C152.439484,615.935242 146.162186,616.185669 139.916214,615.851196 
	C135.417831,615.610291 133.690170,616.873718 133.865021,621.674316 
	C134.222473,631.488464 133.841293,641.327515 134.051880,651.150146 
	C134.132736,654.921692 132.760849,656.183594 129.110672,655.997192 
	C124.705475,655.772156 120.279572,655.916992 115.863167,655.958313 
	C112.532349,655.989441 111.045296,654.368408 111.045723,651.075928 
	C111.049858,619.429321 111.041588,587.782715 110.988014,556.136169 
	C110.981995,552.578918 112.554482,550.993530 116.094719,551.009216 
	C130.751892,551.074219 145.409378,551.090820 160.066711,551.084290 
	C163.373947,551.082825 165.046906,552.610474 164.886093,555.922180 
	C164.613724,561.531372 164.556198,567.180664 163.723846,572.710022 
	C163.536880,573.952026 160.537643,575.616333 158.817505,575.634827 
	C151.549835,575.712708 144.276947,575.139038 137.004150,575.092529 
	C136.004517,575.086060 134.185074,576.650391 134.125748,577.575928 
	C133.827972,582.221375 133.989243,586.896240 133.989243,592.072998 
	C138.745987,592.072998 143.035583,592.072998 147.796143,592.071411 
z"/>
<path fill="#ffffff" opacity="1.000000" stroke="none" 
	d="
M175.016144,568.002686 
	C175.016159,562.531921 175.016159,557.560425 175.016159,552.294800 
	C182.956589,552.294800 190.682709,552.294800 198.748352,552.294800 
	C198.819626,553.702637 198.955414,555.141296 198.956070,556.580017 
	C198.969910,587.539429 198.868271,618.499451 199.080109,649.457458 
	C199.111374,654.023682 197.361908,655.134949 193.372498,655.039001 
	C187.415192,654.895752 181.451889,655.001770 175.016144,655.001770 
	C175.016144,625.973389 175.016144,597.237671 175.016144,568.002686 
z"/>
<path fill="#ffffff" opacity="1.000000" stroke="none" 
	d="
M396.019348,607.000000 
	C396.019073,588.552185 396.019073,570.604370 396.019073,552.328918 
	C404.002899,552.328918 411.718262,552.328918 419.937256,552.328918 
	C419.937256,553.760071 419.937103,555.198364 419.937256,556.636597 
	C419.940460,587.582458 419.859619,618.528870 420.042358,649.473694 
	C420.068268,653.853821 418.884460,655.431030 414.443542,655.084412 
	C409.813324,654.722961 405.122681,654.817749 400.477539,655.067810 
	C396.892609,655.260742 395.927460,653.846191 395.963043,650.424316 
	C396.111786,636.117554 396.022003,621.808350 396.019348,607.000000 
z"/>
<path fill="#ffffff" opacity="1.000000" stroke="none" 
	d="
M526.754456,654.997925 
	C521.453430,655.001648 516.607605,655.235718 511.809937,654.858276 
	C510.475494,654.753357 508.191345,652.843689 508.184937,651.751160 
	C507.990204,618.663086 508.026245,585.573730 508.026245,552.250854 
	C516.098145,552.250854 523.821167,552.250854 531.950134,552.250854 
	C531.950134,553.218933 531.950195,554.005310 531.950073,554.791626 
	C531.945496,586.587402 531.888855,618.383423 532.007141,650.178772 
	C532.020752,653.844299 531.002625,655.546204 526.754456,654.997925 
z"/>
<path fill="#BB3649" opacity="1.000000" stroke="none" 
	d="
M655.943298,637.070923 
	C653.010498,638.932556 650.218201,640.544922 647.308411,641.906128 
	C644.982300,642.994324 642.513062,643.776855 639.796448,644.813660 
	C645.439880,651.710266 650.572571,658.099854 655.843567,664.373230 
	C658.355408,667.362793 658.423035,669.843506 655.175110,672.299622 
	C653.861328,673.293091 652.830261,674.653625 651.626465,675.800903 
	C648.193237,679.072815 645.992798,678.747742 643.060913,675.168335 
	C638.349060,669.415771 633.400391,663.857117 628.387451,658.025330 
	C627.175903,661.867798 626.407532,665.434814 624.893799,668.650940 
	C624.080200,670.379517 622.062927,672.481384 620.448364,672.606812 
	C619.064148,672.714355 616.778870,670.535950 616.098999,668.874634 
	C611.893127,658.596741 607.995972,648.191589 604.063354,637.803284 
	C601.866943,632.001526 600.166321,625.980835 597.563293,620.373962 
	C595.334839,615.573853 596.876648,612.656677 600.520081,610.242432 
	C617.692688,616.887878 634.683472,623.497437 651.707581,630.020325 
	C654.902527,631.244385 657.339355,632.701538 655.943298,637.070923 
z"/>
<path fill="#BB3649" opacity="1.000000" stroke="none" 
	d="
M482.544128,302.117859 
	C481.526550,303.126892 480.052917,304.861633 478.561676,304.876862 
	C460.426025,305.062805 442.286224,305.125000 424.151459,304.900024 
	C419.830414,304.846466 415.523987,303.614075 411.103027,302.548462 
	C434.690125,302.130188 458.385010,302.087402 482.544128,302.117859 
z"/>
<path fill="#BB3649" opacity="1.000000" stroke="none" 
	d="
M487.364624,344.845795 
	C486.100922,344.566681 485.138062,344.115662 484.001831,343.583435 
	C490.224182,337.916168 493.696259,331.459869 493.746277,322.873016 
	C494.764404,323.535370 495.541779,324.041077 496.368347,324.578796 
	C499.942627,318.028809 503.497742,311.513977 507.237610,304.660583 
	C500.495880,304.017426 494.857483,303.479523 489.107117,302.562439 
	C494.458923,302.130615 499.922577,302.053680 505.386414,302.035736 
	C508.051147,302.026978 509.610870,302.783875 508.084930,305.887024 
	C505.796234,310.541199 503.852264,315.373322 501.410278,319.941895 
	C496.964813,328.258667 492.261292,336.437500 487.364624,344.845795 
z"/>
</svg>